<svg width="52" height="65" viewBox="0 0 52 65" fill="none" xmlns="http://www.w3.org/2000/svg">
<g clip-path="url(#clip0_153_1233)">
<path d="M47.6995 22.7542C47.4918 20.805 47.4625 17.4477 48.9127 16.3204C48.9386 16.2997 48.958 16.2699 48.9806 16.2442C50.1663 15.7708 50.9869 15.1064 50.3428 14.2124L32.8523 7.6333L4.53128 12.5488C4.53128 12.5488 1.28817 13.1275 1.57788 19.4176C1.73515 22.8411 2.59525 24.5224 3.34744 25.3499L1.02344 26.2242C0.378403 27.1183 1.1988 27.7829 2.38464 28.2555C2.40717 28.2819 2.42618 28.3116 2.45254 28.3323C3.90188 29.4605 3.87398 32.8174 3.66551 34.767C-1.54122 36.6127 0.327818 37.2142 0.327818 37.2142L1.46997 37.5592C0.666584 38.4655 -0.13128 40.1841 0.0181762 43.4436C0.308044 49.7326 2.97188 50.1666 2.97188 50.1666L21.505 57.6868L49.4785 49.2281C49.4785 49.2281 51.3482 48.6257 46.1401 46.7798C45.9307 44.8333 45.9016 41.4768 47.3543 40.3456C47.3809 40.3255 47.4004 40.2951 47.422 40.2699C48.6079 39.7964 49.4276 39.1326 48.7834 38.2385L47.5675 37.7802C48.3784 37.1698 49.5964 35.5744 49.7873 31.4302C49.9189 28.5797 49.3232 26.9102 48.6338 25.9274L51.037 25.2014C51.0372 25.2025 52.9068 24.6001 47.6995 22.7542ZM24.3013 22.6737L29.0054 21.4667L44.9026 17.3884L47.271 16.7803C46.5142 18.5094 46.546 20.8758 46.6712 22.3968C46.6987 22.7408 46.7302 23.055 46.7609 23.2939L44.1685 24.0985L24.1035 30.3299L24.3013 22.6737ZM4.09441 28.794L6.46256 29.4022L21.7296 33.3201L23.0633 33.6611L27.0631 34.6874L27.2604 42.3439L6.63792 35.9387L4.60486 35.308C4.63475 35.0688 4.66633 34.755 4.69499 34.4099C4.81946 32.8901 4.85181 30.5232 4.09441 28.794ZM3.17438 19.1149C3.14571 17.4418 3.38453 16.2318 3.86724 15.6168C4.17443 15.2241 4.53695 15.1424 4.78558 15.1424C4.91695 15.1424 5.01153 15.1652 5.01797 15.1652L17.2208 20.1316L23.3089 22.6096L23.1092 30.3194L6.02952 24.3416L5.12818 24.0264C5.09507 24.0147 5.05016 24.0067 5.01552 24.0048C4.94516 23.9985 3.25654 23.8044 3.17438 19.1149ZM21.5492 54.3465L3.56863 48.0534C3.53537 48.0413 3.49092 48.0333 3.45627 48.0312C3.38469 48.0252 1.6953 47.8314 1.6136 43.143C1.58447 41.4678 1.82452 40.259 2.30631 39.6433C2.61426 39.2507 2.97694 39.1689 3.22511 39.1689C3.35679 39.1689 3.45106 39.191 3.45796 39.191C3.45796 39.191 3.45872 39.191 3.45796 39.191L21.7477 46.6365L21.5492 54.3465ZM45.1103 46.4228C45.1386 46.768 45.1702 47.0816 45.2009 47.3208L22.5431 54.3574L22.7411 46.701L27.5852 45.4577L28.3006 45.6738L30.9819 44.5859L43.3416 41.4152L45.711 40.8066C44.9535 42.5356 44.9849 44.903 45.1103 46.4228ZM46.3584 36.0174C46.3171 36.0185 46.2759 36.0254 46.2371 36.0407L44.5282 36.638L28.257 42.3337L28.0581 34.6239L33.3965 32.4502L46.3228 27.1875C46.3245 27.1866 47.0028 26.9985 47.5007 27.6305C47.9826 28.2456 48.2217 29.4556 48.1935 31.1286C48.1092 35.8167 46.4198 36.0115 46.3584 36.0174Z" fill="#03151E"/>
</g>
<defs>
<clipPath id="clip0_153_1233">
<rect width="51.3637" height="64.1217" fill="white"/>
</clipPath>
</defs>
</svg>
