<svg width="110" height="78" viewBox="0 0 110 78" fill="none" xmlns="http://www.w3.org/2000/svg">
<path d="M101.867 23.956C101.424 20.9912 101.362 15.8848 104.449 14.1702C104.504 14.1387 104.545 14.0933 104.594 14.0543C107.118 13.3342 108.864 12.3236 107.493 10.9638L70.2627 0.957031L9.97833 8.43358C9.97833 8.43358 3.07501 9.31376 3.6917 18.881C4.02647 24.0881 5.85729 26.6454 7.45839 27.904L2.51151 29.2339C1.13848 30.5937 2.88478 31.6046 5.40897 32.3235C5.45693 32.3637 5.49739 32.4088 5.55351 32.4402C8.63859 34.1563 8.5792 39.2622 8.13545 42.2275C-2.94765 45.0348 1.0308 45.9496 1.0308 45.9496L3.46199 46.4744C1.75191 47.8529 0.053565 50.467 0.371698 55.4246C0.988713 64.9902 6.65898 65.6503 6.65898 65.6503L46.1088 77.0885L105.653 64.2229C105.653 64.2229 109.633 63.3066 98.5472 60.499C98.1015 57.5383 98.0395 52.4331 101.132 50.7126C101.189 50.6821 101.23 50.6358 101.276 50.5974C103.8 49.8773 105.545 48.8676 104.174 47.5077L101.586 46.8106C103.312 45.8821 105.904 43.4555 106.311 37.1523C106.591 32.8166 105.323 30.2773 103.855 28.7824L108.971 27.6781C108.971 27.6799 112.951 26.7636 101.867 23.956ZM52.061 23.8335L62.0742 21.9977L95.9131 15.7946L100.955 14.8696C99.3437 17.4996 99.4112 21.0989 99.6778 23.4123C99.7362 23.9356 99.8034 24.4136 99.8687 24.7768L94.3505 26.0007L51.64 35.4786L52.061 23.8335ZM9.04841 33.1426L14.0893 34.0676L46.5868 40.0268L49.4258 40.5455L57.9397 42.1064L58.3597 53.7519L14.4625 44.0097L10.135 43.0504C10.1986 42.6865 10.2658 42.2092 10.3268 41.6844C10.5918 39.3728 10.6606 35.7726 9.04841 33.1426ZM7.09001 18.4206C7.029 15.8758 7.53736 14.0354 8.56484 13.0999C9.21873 12.5027 9.99041 12.3784 10.5196 12.3784C10.7993 12.3784 11.0006 12.413 11.0143 12.413L36.9893 19.967L49.9486 23.736L49.5234 35.4626L13.1675 26.3704L11.2489 25.891C11.1784 25.8732 11.0828 25.861 11.0091 25.8581C10.8593 25.8485 7.2649 25.5534 7.09001 18.4206ZM46.2027 72.008L7.92923 62.4361C7.85843 62.4177 7.7638 62.4055 7.69006 62.4023C7.53768 62.3933 3.94164 62.0984 3.76773 54.9674C3.70573 52.4194 4.2167 50.5808 5.24223 49.6444C5.89775 49.0471 6.66975 48.9229 7.19801 48.9229C7.4783 48.9229 7.67897 48.9563 7.69365 48.9563C7.69365 48.9563 7.69528 48.9563 7.69365 48.9563L46.6253 60.281L46.2027 72.008ZM96.3552 59.9559C96.4155 60.481 96.4828 60.9581 96.548 61.3219L48.3184 72.0246L48.74 60.3791L59.0511 58.4881L60.5739 58.8167L66.2813 57.162L92.5904 52.3394L97.6339 51.4138C96.0214 54.0435 96.0883 57.6443 96.3552 59.9559ZM99.0118 44.1293C98.9241 44.1311 98.8363 44.1416 98.7537 44.1648L95.1163 45.0733L60.4812 53.7365L60.0577 42.0098L71.4211 38.7036L98.9361 30.6991C98.9397 30.6976 100.384 30.4115 101.443 31.3729C102.469 32.3084 102.978 34.1488 102.918 36.6935C102.739 43.824 99.1427 44.1203 99.0118 44.1293Z" fill="white"/>
</svg>
