<svg width="28" height="30" viewBox="0 0 28 30" fill="none" xmlns="http://www.w3.org/2000/svg">
<path fill-rule="evenodd" clip-rule="evenodd" d="M8.1961 0.09C9.65024 0.0163636 10.1139 0 13.818 0C17.5221 0 17.9858 0.0177273 19.4387 0.09C20.8916 0.162273 21.8833 0.417273 22.7511 0.786818C23.6597 1.16455 24.4841 1.755 25.1659 2.51864C25.8602 3.26727 26.3957 4.17273 26.7378 5.17364C27.075 6.12818 27.3056 7.21909 27.3726 8.81455C27.4395 10.4168 27.4544 10.9268 27.4544 15C27.4544 19.0745 27.4383 19.5845 27.3726 21.1841C27.3068 22.7795 27.075 23.8705 26.7378 24.825C26.3957 25.826 25.8593 26.733 25.1659 27.4827C24.4841 28.2464 23.6597 28.8355 22.7511 29.2118C21.8833 29.5827 20.8916 29.8364 19.4411 29.91C17.9858 29.9836 17.5221 30 13.818 30C10.1139 30 9.65024 29.9823 8.1961 29.91C6.74569 29.8377 5.75395 29.5827 4.88619 29.2118C3.97617 28.8354 3.15167 28.2453 2.47007 27.4827C1.77633 26.7336 1.23947 25.8271 0.89693 24.8264C0.56098 23.8718 0.330401 22.7809 0.263459 21.1855C0.196517 19.5832 0.181641 19.0732 0.181641 15C0.181641 10.9255 0.197756 10.4155 0.263459 8.81727C0.329161 7.21909 0.56098 6.12818 0.89693 5.17364C1.23997 4.17284 1.77724 3.26634 2.47131 2.51727C3.15194 1.75432 3.97561 1.16379 4.88495 0.786818C5.75272 0.417273 6.74445 0.163636 8.19486 0.09H8.1961ZM19.3283 2.79C17.8903 2.71773 17.4589 2.70273 13.818 2.70273C10.1771 2.70273 9.74569 2.71773 8.30767 2.79C6.97751 2.85682 6.25602 3.10091 5.77503 3.30682C5.13908 3.57955 4.68412 3.90273 4.20685 4.42773C3.75442 4.91189 3.40624 5.50129 3.18784 6.15273C3.00065 6.68182 2.77875 7.47545 2.718 8.93864C2.6523 10.5205 2.63867 10.995 2.63867 15C2.63867 19.005 2.6523 19.4795 2.718 21.0614C2.77875 22.5245 3.00065 23.3182 3.18784 23.8473C3.40602 24.4977 3.75437 25.0882 4.20685 25.5723C4.64693 26.07 5.18371 26.4532 5.77503 26.6932C6.25602 26.8991 6.97751 27.1432 8.30767 27.21C9.74569 27.2823 10.1759 27.2973 13.818 27.2973C17.4602 27.2973 17.8903 27.2823 19.3283 27.21C20.6585 27.1432 21.38 26.8991 21.861 26.6932C22.4969 26.4205 22.9519 26.0973 23.4292 25.5723C23.8816 25.0882 24.23 24.4977 24.4482 23.8473C24.6354 23.3182 24.8573 22.5245 24.918 21.0614C24.9837 19.4795 24.9973 19.005 24.9973 15C24.9973 10.995 24.9837 10.5205 24.918 8.93864C24.8573 7.47545 24.6354 6.68182 24.4482 6.15273C24.2002 5.45318 23.9064 4.95273 23.4292 4.42773C22.989 3.9301 22.4532 3.54711 21.861 3.30682C21.38 3.10091 20.6585 2.85682 19.3283 2.79ZM12.0763 19.6241C13.049 20.0695 14.1321 20.1296 15.1406 19.7942C16.1492 19.4587 17.0206 18.7485 17.606 17.7849C18.1913 16.8212 18.4544 15.6639 18.3503 14.5106C18.2462 13.3573 17.7812 12.2795 17.0349 11.4614C16.5592 10.9384 15.984 10.5379 15.3506 10.2888C14.7173 10.0397 14.0417 9.94822 13.3723 10.0208C12.703 10.0935 12.0566 10.3284 11.4797 10.7088C10.9029 11.0892 10.4098 11.6056 10.0361 12.2207C9.66246 12.8359 9.41741 13.5345 9.31864 14.2663C9.21988 14.9981 9.26985 15.7449 9.46495 16.453C9.66006 17.161 9.99546 17.8127 10.447 18.361C10.8985 18.9093 11.455 19.3407 12.0763 19.6241ZM8.86181 9.54818C9.51266 8.83224 10.2853 8.26432 11.1357 7.87686C11.9861 7.48939 12.8976 7.28996 13.818 7.28996C14.7385 7.28996 15.6499 7.48939 16.5003 7.87686C17.3507 8.26432 18.1233 8.83224 18.7742 9.54818C19.4251 10.2641 19.9413 11.1141 20.2936 12.0495C20.6458 12.9849 20.8271 13.9875 20.8271 15C20.8271 16.0125 20.6458 17.0151 20.2936 17.9505C19.9413 18.8859 19.4251 19.7359 18.7742 20.4518C17.4597 21.8977 15.6769 22.71 13.818 22.71C11.9591 22.71 10.1763 21.8977 8.86181 20.4518C7.54734 19.0059 6.80888 17.0448 6.80888 15C6.80888 12.9552 7.54734 10.9941 8.86181 9.54818ZM22.3816 8.43818C22.5429 8.27082 22.672 8.06956 22.7614 7.84633C22.8507 7.62309 22.8983 7.38241 22.9016 7.13854C22.9048 6.89467 22.8635 6.65257 22.7802 6.42656C22.6968 6.20055 22.5731 5.99524 22.4163 5.82278C22.2595 5.65032 22.0729 5.51421 21.8674 5.42252C21.662 5.33083 21.4419 5.28542 21.2202 5.28898C20.9985 5.29253 20.7797 5.34498 20.5767 5.44322C20.3738 5.54146 20.1908 5.68349 20.0387 5.86091C19.7428 6.20595 19.5808 6.66426 19.5871 7.13854C19.5933 7.61283 19.7674 8.06574 20.0723 8.40115C20.3772 8.73656 20.789 8.92804 21.2202 8.93495C21.6513 8.94187 22.068 8.76367 22.3816 8.43818Z" fill="white"/>
</svg>
