<svg width="28" height="30" viewBox="0 0 28 30" fill="none" xmlns="http://www.w3.org/2000/svg">
<path d="M27.636 3.55855C26.6331 4.1599 25.5557 4.56621 24.423 4.74987C25.5917 3.80363 26.466 2.31435 26.8829 0.559934C25.7849 1.44244 24.5832 2.06362 23.33 2.39648C22.4872 1.17894 21.371 0.371933 20.1546 0.100754C18.9382 -0.170425 17.6896 0.109396 16.6028 0.896774C15.5159 1.68415 14.6516 2.93503 14.144 4.45521C13.6363 5.97539 13.5138 7.67981 13.7955 9.30386C11.5706 9.1527 9.39409 8.37022 7.40718 7.00721C5.42028 5.64419 3.66738 3.73109 2.26226 1.39207C1.78181 2.5135 1.50555 3.81371 1.50555 5.19844C1.50501 6.44501 1.73188 7.67249 2.16602 8.77196C2.60016 9.87144 3.22816 10.8089 3.99428 11.5012C3.10578 11.463 2.23688 11.1381 1.45991 10.5537V10.6512C1.45982 12.3996 1.90677 14.0941 2.72491 15.4474C3.54306 16.8006 4.68201 17.7291 5.94851 18.0754C5.12428 18.3773 4.26013 18.4217 3.42134 18.2054C3.77867 19.7098 4.47472 21.0253 5.41205 21.9678C6.34937 22.9103 7.48104 23.4326 8.64864 23.4615C6.66658 25.5669 4.21875 26.709 1.69893 26.7039C1.25257 26.7041 0.806588 26.6688 0.363281 26.5983C2.92105 28.8236 5.89847 30.0046 8.93931 30C19.2329 30 24.8602 18.4639 24.8602 8.45872C24.8602 8.13367 24.8542 7.80537 24.8434 7.48031C25.938 6.40922 26.8828 5.08288 27.6336 3.56342L27.636 3.55855Z" fill="white"/>
</svg>
