<svg width="28" height="30" viewBox="0 0 28 30" fill="none" xmlns="http://www.w3.org/2000/svg">
<path d="M27.4292 4.707C27.2748 3.79862 26.974 2.97622 26.5589 2.32723C26.132 1.65828 25.6088 1.17976 25.0386 0.936841C22.9048 0.00929194 14.356 0.00929215 14.356 0.00929215C10.792 -0.0575801 7.22899 0.236541 3.68693 0.889995C3.11677 1.15086 2.59454 1.64007 2.16668 2.31411C1.74629 2.9812 1.44178 3.80381 1.28271 4.70513C0.900596 8.10004 0.714938 11.5472 0.72824 15C0.714606 18.4497 0.899808 21.8957 1.28271 25.2948C1.43837 26.1924 1.74174 27.0113 2.16327 27.6728C2.58481 28.3342 3.10974 28.812 3.68693 29.065C5.84914 29.9907 14.356 29.9907 14.356 29.9907C17.9244 30.0576 21.492 29.7635 25.0386 29.11C25.6088 28.8671 26.132 28.3885 26.5589 27.7196C26.9793 27.0581 27.2781 26.2355 27.4281 25.3398C27.8202 21.9462 28.0108 18.4977 27.9973 15.0431C28.0268 11.5739 27.8364 8.10907 27.4292 4.70513V4.707ZM11.6381 21.416V8.58584L18.7508 15.0019L11.6381 21.416Z" fill="white"/>
</svg>
